<!DOCTYPE svg PUBLIC "-//W3C//DTD SVG 1.1//EN" "http://www.w3.org/Graphics/SVG/1.1/DTD/svg11.dtd">

<!-- Uploaded to: SVG Repo, www.svgrepo.com, Transformed by: SVG Repo Mixer Tools -->
<svg fill="#8b91a0" width="15px" height="15px" viewBox="-32 0 512 512" xmlns="http://www.w3.org/2000/svg">

<g id="SVGRepo_bgCarrier" stroke-width="0"/>

<g id="SVGRepo_tracerCarrier" stroke-linecap="round" stroke-linejoin="round"/>

<g id="SVGRepo_iconCarrier">

<path d="M16 224h416a16 16 0 0 0 16-16v-32a16 16 0 0 0-16-16H16a16 16 0 0 0-16 16v32a16 16 0 0 0 16 16zm416 192H16a16 16 0 0 0-16 16v32a16 16 0 0 0 16 16h416a16 16 0 0 0 16-16v-32a16 16 0 0 0-16-16zm3.17-384H172.83A12.82 12.82 0 0 0 160 44.83v38.34A12.82 12.82 0 0 0 172.83 96h262.34A12.82 12.82 0 0 0 448 83.17V44.83A12.82 12.82 0 0 0 435.17 32zm0 256H172.83A12.82 12.82 0 0 0 160 300.83v38.34A12.82 12.82 0 0 0 172.83 352h262.34A12.82 12.82 0 0 0 448 339.17v-38.34A12.82 12.82 0 0 0 435.17 288z"/>

</g>

</svg>