<!DOCTYPE svg PUBLIC "-//W3C//DTD SVG 1.1//EN" "http://www.w3.org/Graphics/SVG/1.1/DTD/svg11.dtd">

<!-- Uploaded to: SVG Repo, www.svgrepo.com, Transformed by: SVG Repo Mixer Tools -->
<svg fill="#8b91a0" width="15px" height="15px" viewBox="-32 0 512 512" xmlns="http://www.w3.org/2000/svg">

<g id="SVGRepo_bgCarrier" stroke-width="0"/>

<g id="SVGRepo_tracerCarrier" stroke-linecap="round" stroke-linejoin="round"/>

<g id="SVGRepo_iconCarrier">

<path d="M32 64h32v160c0 88.22 71.78 160 160 160s160-71.78 160-160V64h32a16 16 0 0 0 16-16V16a16 16 0 0 0-16-16H272a16 16 0 0 0-16 16v32a16 16 0 0 0 16 16h32v160a80 80 0 0 1-160 0V64h32a16 16 0 0 0 16-16V16a16 16 0 0 0-16-16H32a16 16 0 0 0-16 16v32a16 16 0 0 0 16 16zm400 384H16a16 16 0 0 0-16 16v32a16 16 0 0 0 16 16h416a16 16 0 0 0 16-16v-32a16 16 0 0 0-16-16z"/>

</g>

</svg>